<svg xmlns="http://www.w3.org/2000/svg" version="1.1" xmlns:xlink="http://www.w3.org/1999/xlink"
    xmlns:svgjs="http://svgjs.com/svgjs" width="512" height="512" x="0" y="0" viewBox="0 0 32 32">
    <g>
        <g xmlns="http://www.w3.org/2000/svg" id="Layer_2" data-name="Layer 2">
            <path d="m28 4h-16a2 2 0 0 0 0 4h16a2 2 0 0 0 0-4z" fill="#000000" data-original="#000000" class=""></path>
            <circle cx="4" cy="6" r="2" fill="#000000" data-original="#000000" class=""></circle>
            <path d="m28 14h-16a2 2 0 0 0 0 4h16a2 2 0 0 0 0-4z" fill="#000000" data-original="#000000" class=""></path>
            <circle cx="4" cy="16" r="2" fill="#000000" data-original="#000000" class=""></circle>
            <path d="m28 24h-16a2 2 0 0 0 0 4h16a2 2 0 0 0 0-4z" fill="#000000" data-original="#000000" class=""></path>
            <circle cx="4" cy="26" r="2" fill="#000000" data-original="#000000" class=""></circle>
        </g>
    </g>
</svg>