<svg version="1.1" id="Capa_1" xmlns="http://www.w3.org/2000/svg" xmlns:xlink="http://www.w3.org/1999/xlink" x="0px" y="0px"
	 viewBox="0 0 512 512" style="enable-background:new 0 0 512 512;" xml:space="preserve" fill="#ADADAD">
<g>
	<g>
		<path d="M0,165.014v272.984c0,24.198,19.687,43.885,43.885,43.885h424.23c24.198,0,43.885-19.686,43.885-43.884V165.014H0z
			 M169.541,415.405c0,5.567-4.513,10.079-10.079,10.079H95.103c-5.567,0-10.079-4.513-10.079-10.079v-66.587
			c0-5.567,4.513-10.079,10.079-10.079h64.359c5.567,0,10.079,4.513,10.079,10.079V415.405z M169.541,288.915
			c0,5.567-4.513,10.079-10.079,10.079H95.103c-5.567,0-10.079-4.513-10.079-10.079v-66.587c0-5.567,4.513-10.079,10.079-10.079
			h64.359c5.567,0,10.079,4.513,10.079,10.079V288.915z M298.259,415.405c0,5.567-4.513,10.079-10.079,10.079h-64.359
			c-5.567,0-10.079-4.513-10.079-10.079v-66.587c0-5.567,4.513-10.079,10.079-10.079h64.359c5.567,0,10.079,4.513,10.079,10.079
			V415.405z M298.259,288.915c0,5.567-4.513,10.079-10.079,10.079h-64.359c-5.567,0-10.079-4.513-10.079-10.079v-66.587
			c0-5.567,4.513-10.079,10.079-10.079h64.359c5.567,0,10.079,4.513,10.079,10.079V288.915z M426.977,415.405
			c0,5.567-4.513,10.079-10.079,10.079h-64.359c-5.567,0-10.079-4.513-10.079-10.079v-66.587c0-5.567,4.513-10.079,10.079-10.079
			h64.359c5.567,0,10.079,4.513,10.079,10.079V415.405z M426.977,288.915c0,5.567-4.513,10.079-10.079,10.079h-64.359
			c-5.567,0-10.079-4.513-10.079-10.079v-66.587c0-5.567,4.513-10.079,10.079-10.079h64.359c5.567,0,10.079,4.513,10.079,10.079
			V288.915z"/>
	</g>
</g>
<g>
	<g>
		<path d="M468.115,67.768h-41.742V45.236c0-8.35-6.769-15.119-15.119-15.119s-15.119,6.769-15.119,15.119v22.532h-47.388V45.236
			c0-8.35-6.769-15.119-15.119-15.119c-8.35,0-15.119,6.769-15.119,15.119v22.532H271.12V45.236c0-8.35-6.769-15.119-15.119-15.119
			s-15.119,6.769-15.119,15.119v22.532h-47.389V45.236c0-8.35-6.769-15.119-15.119-15.119c-8.35,0-15.119,6.769-15.119,15.119
			v22.532h-47.388V45.236c0-8.35-6.769-15.119-15.119-15.119c-8.35,0-15.119,6.769-15.119,15.119v22.532h-0.002H43.885
			C19.687,67.768,0,87.455,0,111.653v33.203h512v-33.203C512,87.455,492.313,67.768,468.115,67.768z"/>
	</g>
</g>
</svg>
