
<svg height="512pt" viewBox="-64 0 512 512" width="512pt" xmlns="http://www.w3.org/2000/svg" fill="#ADADAD">
<path d="M85.3,42.7l21.3,0l0,69.8c0,34.7,14.8,68,40.6,91.2l36.1,32.5c5.7,5.1,8.8,12.2,8.8,19.8c0,7.7-3.1,14.7-8.8,19.8
	l-36.1,32.5c-25.8,23.3-40.6,56.5-40.6,91.2l0,69.8H85.3c-11.8,0-21.3,9.6-21.3,21.3c0,11.8,9.5,21.3,21.3,21.3l341.3,0
	c11.8,0,21.3-9.6,21.3-21.3c0-11.8-9.5-21.3-21.3-21.3h-21.3l0-69.8c0-34.7-14.8-68-40.6-91.2l-36.1-32.5
	c-5.7-5.1-8.8-12.2-8.8-19.8c0-7.7,3.1-14.7,8.8-19.8l36.1-32.5c25.8-23.3,40.6-56.5,40.6-91.2l0-69.8l21.3,0
	c11.8,0,21.3-9.6,21.3-21.3C448,9.6,438.5,0,426.7,0L85.3,0C73.5,0,64,9.6,64,21.3C64,33.1,73.5,42.7,85.3,42.7z M341.3,110.3
	c0,15.7-6.1,30.4-17.2,41.5l-56.8,56.8c-6.3,6.3-16.4,6.3-22.6,0l-56.8-56.8c-11.1-11.1-17.2-25.8-17.2-41.5l0-67.6l170.7,0
	L341.3,110.3z"/>
</svg>
