<svg height="512pt" viewBox="-64 0 512 512" width="512pt" xmlns="http://www.w3.org/2000/svg" fill="#ADADAD">
    <path
        d="m362.667969 469.332031h-21.335938v-69.824219c0-34.730468-14.78125-67.964843-40.597656-91.175781l-36.117187-32.492187c-5.695313-5.140625-8.832032-12.179688-8.832032-19.839844s3.136719-14.699219 8.832032-19.820312l36.117187-32.488282c25.816406-23.253906 40.597656-56.46875 40.597656-91.199218v-69.824219h21.335938c11.796875 0 21.332031-9.558594 21.332031-21.335938 0-11.773437-9.535156-21.332031-21.332031-21.332031h-341.335938c-11.796875 0-21.332031 9.558594-21.332031 21.332031 0 11.777344 9.535156 21.335938 21.332031 21.335938h21.335938v69.824219c0 34.730468 14.78125 67.964843 40.597656 91.175781l36.117187 32.492187c5.695313 5.140625 8.832032 12.179688 8.832032 19.839844s-3.136719 14.699219-8.832032 19.820312l-36.117187 32.488282c-25.816406 23.253906-40.597656 56.46875-40.597656 91.199218v69.824219h-21.335938c-11.796875 0-21.332031 9.558594-21.332031 21.335938 0 11.773437 9.535156 21.332031 21.332031 21.332031h341.335938c11.796875 0 21.332031-9.558594 21.332031-21.332031 0-11.777344-9.535156-21.335938-21.332031-21.335938zm-256-67.648437c0-15.679688 6.101562-30.398438 17.195312-41.492188l56.828125-56.832031c6.253906-6.25 16.386719-6.25 22.636719 0l56.832031 56.832031c11.09375 11.09375 17.195313 25.8125 17.195313 41.492188v67.648437h-170.6875zm0 0" />
    </svg>