<svg id="Capa_1" enable-background="new 0 0 508 508" height="512" viewBox="0 0 508 508" width="512"
    xmlns="http://www.w3.org/2000/svg" fill="#ADADAD">
    <g>
        <path
            d="m492.125 201.083h-137.583c-8.763 0-15.875 7.112-15.875 15.875s7.112 15.875 15.875 15.875h137.583c8.763 0 15.875-7.112 15.875-15.875s-7.112-15.875-15.875-15.875z" />
        <path
            d="m492.125 264.583h-137.583c-8.763 0-15.875 7.112-15.875 15.875s7.112 15.875 15.875 15.875h137.583c8.763 0 15.875-7.112 15.875-15.875s-7.112-15.875-15.875-15.875z" />
        <path
            d="m492.125 328.083h-137.583c-8.763 0-15.875 7.112-15.875 15.875s7.112 15.875 15.875 15.875h137.583c8.763 0 15.875-7.112 15.875-15.875s-7.112-15.875-15.875-15.875z" />
        <path
            d="m492.125 391.583h-137.583c-8.763 0-15.875 7.112-15.875 15.875s7.112 15.875 15.875 15.875h137.583c8.763 0 15.875-7.112 15.875-15.875s-7.112-15.875-15.875-15.875z" />
        <path
            d="m492.125 455.083h-137.583c-8.763 0-15.875 7.112-15.875 15.875s7.112 15.875 15.875 15.875h137.583c8.763 0 15.875-7.112 15.875-15.875s-7.112-15.875-15.875-15.875z" />
        <path
            d="m259.292 201.083h-222.25c-20.32 0-37.042 16.722-37.042 37.042v211.667c0 20.32 16.722 37.042 37.042 37.042h222.25c20.32 0 37.042-16.722 37.042-37.042v-211.667c-.001-20.32-16.722-37.042-37.042-37.042zm-111.125 74.084c17.568 0 31.75 14.182 31.75 31.75s-14.182 31.75-31.75 31.75-31.75-14.182-31.75-31.75 14.181-31.75 31.75-31.75zm63.5 132.291c0 8.678-7.197 15.875-15.875 15.875h-95.25c-8.678 0-15.875-7.197-15.875-15.875v-7.832c0-22.013 19.897-39.793 44.45-39.793h38.1c24.553 0 44.45 17.78 44.45 39.793z" />
        <path
            d="m470.958 21.167h-433.916c-20.426 0-37.042 16.616-37.042 37.041v52.917c0 20.426 16.616 37.042 37.042 37.042h433.917c20.426 0 37.042-16.616 37.042-37.042v-52.917c-.001-20.425-16.617-37.041-37.043-37.041z" />
    </g>
</svg>