<svg version="1.1" id="Capa_1" xmlns="http://www.w3.org/2000/svg" xmlns:xlink="http://www.w3.org/1999/xlink" x="0px"
	y="0px" viewBox="0 0 397.061 397.061" xml:space="preserve" fill="#ADADAD">
	<g>
		<g>
			<g>
				<rect x="151.51" y="253.388" width="94.041" height="57.469" />
				<path d="M261.224,289.959v27.69c0.311,4.434-2.902,8.337-7.314,8.882H143.151c-4.412-0.545-7.626-4.447-7.314-8.882v-27.69
						H24.555c-8.882,0-19.331-7.837-24.555-12.539v73.143c0,13.061,11.494,28.212,24.555,28.212h347.951
						c13.061,0,24.555-15.151,24.555-28.212V277.42c-5.224,4.702-15.673,12.539-24.555,12.539H261.224z" />
				<path d="M372.506,91.429H24.555C11.494,91.429,0,99.788,0,112.849v133.224c0,13.061,11.494,28.212,24.555,28.212h111.282v-30.302
						c0-4.18,3.135-6.269,7.314-6.269H253.91c4.18,0,7.314,2.09,7.314,6.269v30.302h111.282c13.061,0,24.555-15.151,24.555-28.212
						V112.849C397.061,99.788,385.567,91.429,372.506,91.429z" />
				<path d="M130.612,56.947c0-11.494,7.837-17.763,19.331-17.763h97.176c11.494,0,19.331,6.269,19.331,17.763V80.98h20.898V56.947
						c0-22.988-17.241-38.661-40.229-38.661h-97.176c-22.988,0-40.229,15.673-40.229,38.661V80.98h20.898V56.947z" />
			</g>
		</g>
	</g>
</svg>