<svg id="Capa_1" enable-background="new 0 0 510 510" height="512" viewBox="0 0 510 510" width="512"
    xmlns="http://www.w3.org/2000/svg">
    <path
        d="m137.27 157.65c0-60.05 48.85-108.9 108.9-108.9 60.04 0 108.89 48.85 108.89 108.9v51.37h48.75v-51.37c0-86.93-70.72-157.65-157.64-157.65-86.93 0-157.65 70.72-157.65 157.65v51.37h48.75z" />
    <path
        d="m455.12 239.02h-400.24c-11.05 0-20 8.95-20 20v230.98c0 11.05 8.95 20 20 20h400.24c11.05 0 20-8.95 20-20v-230.98c0-11.05-8.95-20-20-20zm-185.12 217.73c0 8.28-6.72 15-15 15s-15-6.72-15-15v-1.33c0-8.29 6.72-15 15-15s15 6.71 15 15zm2.05-72.09c-1.23.4-2.05 1.47-2.05 2.65v13.28c0 8.29-6.72 15-15 15s-15-6.71-15-15v-13.28c0-14.12 9.07-26.7 22.73-31.17 10.82-3.54 17.83-13.99 17.05-25.41-.85-12.25-10.73-22.13-22.99-22.98-14.63-1.03-26.63 10.55-26.63 24.78 0 8.27-6.69 15-15 15-8.28 0-15-6.72-15-15 0-31.06 26.18-56.95 58.7-54.71 27.12 1.87 48.98 23.73 50.85 50.85 1.73 25.15-13.75 48.17-37.66 55.99z" />
    </svg>