<svg id="Capa_1" enable-background="new 0 0 511.921 511.921" height="512" viewBox="0 0 511.921 511.921" width="512"
    xmlns="http://www.w3.org/2000/svg" fill="#ADADAD" >
    <g>
        <circle cx="229.142" cy="282.779" r="35" />
        <path
            d="m294.081 281.48c.338 17.075-5.975 34.26-18.977 47.261-25.344 25.344-66.581 25.343-91.924 0-25.344-25.344-25.344-66.58 0-91.924 13.001-13.001 30.185-19.315 47.26-18.977l79.103-79.103c-49.738-26.054-107.431-19.938-143.762 16.393-8.855 8.855-16.058 19.112-21.407 30.483-6.796 14.447-19.834 24.517-34.876 26.937-27.683 4.455-52.455 16.951-71.639 36.135-55.104 55.104-49.383 150.486 12.753 212.622s157.518 67.857 212.622 12.753c19.184-19.184 31.679-43.957 36.134-71.639 2.421-15.042 12.492-28.08 26.938-34.876 11.372-5.349 21.628-12.552 30.483-21.407 36.331-36.331 42.447-94.024 16.394-143.761zm-107.365 135.649-91.924-91.924 21.213-21.213 91.924 91.924z" />
        <path
            d="m284.462 248.672 100.18-100.18-21.214-21.214-100.18 100.18c4.216 2.599 8.205 5.707 11.856 9.358 3.651 3.652 6.759 7.641 9.358 11.856z" />
        <path
            d="m511.921 63.64-63.64-63.64-21.213 21.213-21.213-21.213-21.214 21.213 21.214 21.213-21.214 21.214-21.213-21.214-21.213 21.214 106.066 106.066 21.214-21.213-21.214-21.213 21.214-21.214 21.213 21.214 21.213-21.214-21.213-21.213z" />
    </g>
</svg>