<?xml version="1.0" encoding="iso-8859-1"?>
<!DOCTYPE svg PUBLIC "-//W3C//DTD SVG 1.1//EN" "http://www.w3.org/Graphics/SVG/1.1/DTD/svg11.dtd">
<svg version="1.1" id="Capa_1" xmlns="http://www.w3.org/2000/svg" xmlns:xlink="http://www.w3.org/1999/xlink" x="0px" y="0px"
	 viewBox="0 0 207.996 207.996" style="enable-background:new 0 0 207.996 207.996;" xml:space="preserve">
<g>
	<path d="M179.653,63.761l2.631,2.631c-1.913,5.198-7.541,17.813-21.427,33.452c-18.784,21.156-25.584,26.941-25.64,26.988
		c-2.123,1.766-2.413,4.918-0.646,7.041c0.989,1.189,2.412,1.803,3.847,1.803c1.127,0,2.26-0.379,3.194-1.156
		c0.286-0.237,7.225-6.075,26.723-28.037c20.07-22.604,24.336-39.578,24.508-40.289c0.409-1.693-0.093-3.478-1.325-4.709l-6.4-6.401
		c1.207-2.043,2.32-4.016,3.315-5.903L162.91,23.658c-0.56-0.56-0.94-1.223-1.179-1.925c-17.853,9.235-40.254,26.944-60.448,45.887
		l41.543,41.543C157.607,93.439,170.341,77.75,179.653,63.761z"/>
	<path d="M202.996,182.926H42.776c20.938-2.578,59.475-32.851,89.509-62.886c1.217-1.217,2.422-2.437,3.618-3.658L94.059,74.538
		c-1.232,1.205-2.455,2.41-3.661,3.616c-20.84,20.84-38.628,42.312-50.089,60.46c-10.789,17.084-14.845,29.182-12.274,36.719
		l-6.111,6.111c-0.44,0.44-0.766,0.947-1.008,1.482H5c-2.761,0-5,2.238-5,5s2.239,5,5,5h197.996c2.761,0,5-2.238,5-5
		S205.757,182.926,202.996,182.926z M34.583,182.926l0.549-0.549c0.714,0.239,1.465,0.426,2.26,0.549H34.583z"/>
	<path d="M191.945,18.494c-2.271-2.271-5.394-3.424-9.28-3.424c-3.365,0-7.313,0.9-11.685,2.517l21.888,21.888
		C196.528,29.689,196.209,22.757,191.945,18.494z"/>
</g>
</svg>
