

    <svg height="454pt" viewBox="-43 0 454 454.4" width="454pt" xmlns="http://www.w3.org/2000/svg" fill="#ADADAD">
        <path
            d="m184.199219 103.199219c-66.398438 0-120 53.601562-120 120 0 31.199219 12 61.601562 34.402343 84l10.398438-58.398438c2.398438-14.402343 12.800781-26.402343 26.398438-30.402343l21.601562-7.199219-12-29.597657c0-3.203124-.800781-6.402343-.800781-9.601562v-4.800781c0-22.398438 17.601562-40 40-40 22.402343 0 40 17.601562 40 40v4.800781c0 3.199219-.800781 6.398438-1.597657 8.800781l-12 29.597657 21.597657 7.203124c13.601562 4.796876 24 16.796876 26.402343 30.398438l10.398438 58.398438c46.398438-47.199219 45.601562-123.199219-1.601562-169.597657-21.597657-21.601562-52-33.601562-83.199219-33.601562zm0 0" />
        <path
            d="m227.398438 232.800781-21.597657-7.199219c-8-2.402343-12.800781-12-10.402343-20v-.800781l12-29.601562c0-.800781.800781-1.597657.800781-3.199219v-4.800781c0-13.597657-10.398438-24-24-24-13.597657 0-24 10.402343-24 24v4.800781c0 .800781 0 2.398438.800781 3.199219l12 29.601562c3.199219 8-.800781 17.597657-8.800781 20.800781h-.800781l-21.597657 7.199219c-8 2.398438-14.402343 9.597657-16 18.398438l-13.601562 68c42.402343 32 100.800781 32 144 0l-12-68c-2.398438-8.800781-8-16-16.800781-18.398438zm0 0" />
        <path
            d="m184.199219 0-184 76.800781v68c0 124.800781 66.402343 240.800781 174.402343 304l9.597657 5.597657 9.601562-5.597657c108-63.199219 174.398438-179.199219 174.398438-304v-68zm0 359.199219c-75.199219 0-136-60.800781-136-136s60.800781-136 136-136 136 60.800781 136 136-60.800781 136-136 136zm0 0" />
        </svg>