<svg xmlns="http://www.w3.org/2000/svg" version="1.1" xmlns:xlink="http://www.w3.org/1999/xlink"
    xmlns:svgjs="http://svgjs.com/svgjs" width="512" height="512" x="0" y="0" viewBox="0 0 512 512"
    style="enable-background:new 0 0 512 512" xml:space="preserve" class="">
    <g>
        <path xmlns="http://www.w3.org/2000/svg"
            d="m440.890625 0h-369.78125c-39.253906.046875-71.0625 31.855469-71.109375 71.109375v369.78125c.046875 39.253906 31.855469 71.0625 71.109375 71.109375h369.78125c39.253906-.046875 71.0625-31.855469 71.109375-71.109375v-369.78125c-.046875-39.253906-31.855469-71.0625-71.109375-71.109375zm-71.113281 184.890625c0 7.851563-6.367188 14.21875-14.222656 14.21875-7.855469 0-14.222657-6.367187-14.222657-14.21875v-14.222656h-71.109375v170.664062h28.445313c7.851562 0 14.222656 6.367188 14.222656 14.222657 0 7.855468-6.371094 14.222656-14.222656 14.222656h-85.335938c-7.851562 0-14.222656-6.367188-14.222656-14.222656 0-7.855469 6.371094-14.222657 14.222656-14.222657h28.445313v-170.664062h-71.109375v14.222656c0 7.851563-6.367188 14.21875-14.222657 14.21875-7.855468 0-14.222656-6.367187-14.222656-14.21875v-28.445313c0-7.855468 6.367188-14.222656 14.222656-14.222656h199.109376c7.855468 0 14.222656 6.367188 14.222656 14.222656zm0 0"
            fill="#000000" data-original="#000000" class=""></path>
    </g>
</svg>