<svg version="1.1" id="Layer_1" xmlns="http://www.w3.org/2000/svg" xmlns:xlink="http://www.w3.org/1999/xlink" x="0px" y="0px"
	 viewBox="0 0 511.999 511.999" style="enable-background:new 0 0 511.999 511.999;" xml:space="preserve" fill="#ADADAD">
<g>
	<g>
		<path d="M190.604,389.283c-25.178,6.781-48.262,5.515-70.543-10.666c-18.293-13.285-29.607-33.667-31.43-56.141l-64.672,96.539
			c-7.421,11.074,0.51,26.05,13.902,26.05h56.597l28.839,57.687c5.868,11.713,22.249,12.44,29.166,1.378l59.167-94.744
			C201.595,402.771,197.285,397.529,190.604,389.283z"/>
	</g>
</g>
<g>
	<g>
		<path d="M488.04,419.01l-68.357-101.952c-1.403,27.875-13.196,48.028-31.841,61.564c-22.532,16.366-45.667,17.34-70.533,10.655
			c-5.938,7.324-9.392,11.733-18.221,18.139l60.45,96.718c6.922,11.059,23.3,10.324,29.166-1.383l28.839-57.687h56.597
			C487.535,445.064,495.461,430.071,488.04,419.01z"/>
	</g>
</g>
<g>
	<g>
		<path d="M423.511,187.444c10.197-15.682,22.774-30.037,15.264-53.171c-7.477-23.029-25.859-27.241-45.114-34.612
			c-3.737-1.432-6.298-4.947-6.504-8.945c-1.029-20.03,0.813-39.236-18.979-53.613c-19.592-14.225-36.927-6.83-56.837-1.476
			c-3.835,1.035-7.986-0.294-10.525-3.42C288.198,16.6,278.405,0,253.957,0c-24.161,0-33.798,16.053-46.869,32.216
			c-2.517,3.116-6.625,4.45-10.502,3.41c-19.387-5.213-37.059-12.893-56.849,1.482c-19.595,14.223-17.921,33.021-18.979,53.613
			c-0.208,3.998-2.757,7.507-6.493,8.939c-18.729,7.169-37.555,11.347-45.126,34.612c-7.48,23.039,4.883,37.197,16.168,54.528
			c2.179,3.356,2.179,7.692,0,11.047c-10.855,16.662-23.748,31.185-16.168,54.534c7.495,23.023,25.821,27.218,45.126,34.608
			c3.737,1.432,6.286,4.941,6.493,8.945c1.027,20-0.817,39.24,18.979,53.608c19.588,14.232,36.927,6.839,56.837,1.482
			c3.889-1.041,7.997,0.305,10.525,3.42c12.606,15.6,22.383,32.205,46.858,32.205c24.212,0,33.868-16.139,46.869-32.21
			c2.517-3.127,6.712-4.461,10.502-3.416c19.5,5.236,37.09,12.88,56.849-1.476c19.59-14.229,17.92-33.005,18.979-53.596
			c0.208-4.015,2.767-7.528,6.504-8.961c18.694-7.156,37.565-11.353,45.114-34.608c7.378-22.724-4.63-36.824-15.274-53.188
			C420.777,197.02,420.777,191.627,423.511,187.444z M253.957,294.729c-55.367,0-100.405-45.044-100.405-100.406
			c0-55.361,45.039-100.405,100.405-100.405s100.406,45.044,100.406,100.405C354.362,249.685,309.323,294.729,253.957,294.729z"/>
	</g>
</g>
<g>
	<g>
		<path d="M253.957,127.387c-36.911,0-66.937,30.026-66.937,66.937c0,36.911,30.026,66.937,66.937,66.937
			c36.911,0,66.937-30.026,66.937-66.937C320.894,157.412,290.868,127.387,253.957,127.387z"/>
	</g>
</g>
</svg>
